<?xml version="1.0" encoding="UTF-8" standalone="no"?>
<!DOCTYPE svg PUBLIC "-//W3C//DTD SVG 1.1//EN"
 "http://www.w3.org/Graphics/SVG/1.1/DTD/svg11.dtd">
<!-- Generated by graphviz version 2.43.0 (0)
 -->
<!-- Title: Deposit Pages: 1 -->
<svg width="618pt" height="101pt"
 viewBox="0.00 0.00 618.00 101.00" xmlns="http://www.w3.org/2000/svg" xmlns:xlink="http://www.w3.org/1999/xlink">
<g id="graph0" class="graph" transform="scale(1 1) rotate(0) translate(4 97)">
<title>Deposit</title>
<polygon fill="white" stroke="transparent" points="-4,4 -4,-97 614,-97 614,4 -4,4"/>
<!-- wallet_in -->
<g id="node1" class="node">
<title>wallet_in</title>
<polygon fill="none" stroke="black" points="0,-0.5 0,-92.5 242,-92.5 242,-0.5 0,-0.5"/>
<text text-anchor="middle" x="121" y="-77.3" font-family="Times-Roman" font-size="14.00">Client wallet</text>
<polyline fill="none" stroke="black" points="0,-69.5 242,-69.5 "/>
<text text-anchor="middle" x="121" y="-54.3" font-family="Times-Roman" font-size="14.00">EthAddress: abcdef0123456789</text>
<polyline fill="none" stroke="black" points="0,-46.5 242,-46.5 "/>
<text text-anchor="middle" x="121" y="-31.3" font-family="Times-Roman" font-size="14.00">Amount: 10</text>
<polyline fill="none" stroke="black" points="0,-23.5 242,-23.5 "/>
<text text-anchor="middle" x="121" y="-8.3" font-family="Times-Roman" font-size="14.00">TokenInfo: (Token1, Token2)</text>
</g>
<!-- tx -->
<g id="node3" class="node">
<title>tx</title>
<ellipse fill="none" stroke="black" cx="305" cy="-46.5" rx="27" ry="18"/>
<text text-anchor="middle" x="305" y="-42.8" font-family="Times-Roman" font-size="14.00">Tx</text>
</g>
<!-- wallet_in&#45;&gt;tx -->
<g id="edge1" class="edge">
<title>wallet_in&#45;&gt;tx</title>
<path fill="none" stroke="black" d="M242.13,-46.5C251.25,-46.5 259.93,-46.5 267.76,-46.5"/>
<polygon fill="black" stroke="black" points="267.85,-50 277.85,-46.5 267.85,-43 267.85,-50"/>
</g>
<!-- wallet_out -->
<g id="node2" class="node">
<title>wallet_out</title>
<polygon fill="none" stroke="black" points="368,-12 368,-81 610,-81 610,-12 368,-12"/>
<text text-anchor="middle" x="489" y="-65.8" font-family="Times-Roman" font-size="14.00">Server Controlled Script Address</text>
<polyline fill="none" stroke="black" points="368,-58 610,-58 "/>
<text text-anchor="middle" x="489" y="-42.8" font-family="Times-Roman" font-size="14.00">Token1: 10</text>
<polyline fill="none" stroke="black" points="368,-35 610,-35 "/>
<text text-anchor="middle" x="489" y="-19.8" font-family="Times-Roman" font-size="14.00">Token2: 10</text>
</g>
<!-- tx&#45;&gt;wallet_out -->
<g id="edge2" class="edge">
<title>tx&#45;&gt;wallet_out</title>
<path fill="none" stroke="black" d="M332.08,-46.5C339.59,-46.5 348.34,-46.5 357.78,-46.5"/>
<polygon fill="black" stroke="black" points="357.85,-50 367.85,-46.5 357.85,-43 357.85,-50"/>
</g>
</g>
</svg>
