<?xml version="1.0" encoding="UTF-8" standalone="no"?>
<!DOCTYPE svg PUBLIC "-//W3C//DTD SVG 1.1//EN"
 "http://www.w3.org/Graphics/SVG/1.1/DTD/svg11.dtd">
<!-- Generated by graphviz version 2.43.0 (0)
 -->
<!-- Title: PaymentConfirmationSundae Pages: 1 -->
<svg width="483pt" height="101pt"
 viewBox="0.00 0.00 483.00 101.00" xmlns="http://www.w3.org/2000/svg" xmlns:xlink="http://www.w3.org/1999/xlink">
<g id="graph0" class="graph" transform="scale(1 1) rotate(0) translate(4 97)">
<title>PaymentConfirmationSundae</title>
<polygon fill="white" stroke="transparent" points="-4,4 -4,-97 479,-97 479,4 -4,4"/>
<!-- wallet_in -->
<g id="node1" class="node">
<title>wallet_in</title>
<polygon fill="none" stroke="black" points="0,-0.5 0,-92.5 222,-92.5 222,-0.5 0,-0.5"/>
<text text-anchor="middle" x="111" y="-77.3" font-family="Times-Roman" font-size="14.00">Centralized server wallet</text>
<polyline fill="none" stroke="black" points="0,-69.5 222,-69.5 "/>
<text text-anchor="middle" x="111" y="-54.3" font-family="Times-Roman" font-size="14.00">PubKeyHash: Recipient Wallet</text>
<polyline fill="none" stroke="black" points="0,-46.5 222,-46.5 "/>
<text text-anchor="middle" x="111" y="-31.3" font-family="Times-Roman" font-size="14.00">Amount: 10</text>
<polyline fill="none" stroke="black" points="0,-23.5 222,-23.5 "/>
<text text-anchor="middle" x="111" y="-8.3" font-family="Times-Roman" font-size="14.00">TokenInfo: (Token1, Token2)</text>
</g>
<!-- tx -->
<g id="node3" class="node">
<title>tx</title>
<ellipse fill="none" stroke="black" cx="285" cy="-46.5" rx="27" ry="18"/>
<text text-anchor="middle" x="285" y="-42.8" font-family="Times-Roman" font-size="14.00">Tx</text>
</g>
<!-- wallet_in&#45;&gt;tx -->
<g id="edge1" class="edge">
<title>wallet_in&#45;&gt;tx</title>
<path fill="none" stroke="black" d="M222.39,-46.5C231.39,-46.5 239.99,-46.5 247.77,-46.5"/>
<polygon fill="black" stroke="black" points="247.82,-50 257.82,-46.5 247.82,-43 247.82,-50"/>
</g>
<!-- wallet_out -->
<g id="node2" class="node">
<title>wallet_out</title>
<polygon fill="none" stroke="black" points="348,-12 348,-81 475,-81 475,-12 348,-12"/>
<text text-anchor="middle" x="411.5" y="-65.8" font-family="Times-Roman" font-size="14.00">Recipient Wallet</text>
<polyline fill="none" stroke="black" points="348,-58 475,-58 "/>
<text text-anchor="middle" x="411.5" y="-42.8" font-family="Times-Roman" font-size="14.00">bToken1: 10</text>
<polyline fill="none" stroke="black" points="348,-35 475,-35 "/>
<text text-anchor="middle" x="411.5" y="-19.8" font-family="Times-Roman" font-size="14.00">bToken2: 10</text>
</g>
<!-- tx&#45;&gt;wallet_out -->
<g id="edge2" class="edge">
<title>tx&#45;&gt;wallet_out</title>
<path fill="none" stroke="black" d="M312.1,-46.5C319.71,-46.5 328.44,-46.5 337.47,-46.5"/>
<polygon fill="black" stroke="black" points="337.76,-50 347.76,-46.5 337.76,-43 337.76,-50"/>
</g>
</g>
</svg>
